<svg version="1.2" xmlns="http://www.w3.org/2000/svg" viewBox="0 0 500 500" width="500" height="500">
	<title>새 프로젝트</title>
	<style>
		.s0 { fill: #1e2939 } 
		.s1 { fill: #ffffff } 
	</style>
	<g id="Layer 1">
		<path id="모양 2" fill-rule="evenodd" class="s0" d="m155.3 284.1l-4.1 69-87 38.7 43.7-129z"/>
		<path id="모양 1" fill-rule="evenodd" class="s0" d="m250 382.4c-118.6 0-214.4-61.4-214.4-137.4 0-75.9 95.8-137.3 214.4-137.3 118.6 0 214.4 61.4 214.4 137.3 0 76-95.8 137.4-214.4 137.4z"/>
		<path id="“ ”" class="s1" aria-label="“ ”"  d="m120.8 284.8c10.3 0 17.3-6.4 17.3-17.8 0-10.5-8.2-16.3-17.3-16.3-0.8 0-1.7 0-2.6 0.3 0-18.4 8.2-29.8 24.5-40.6l-7.6-12.6c-22.4 13.2-34.7 31.9-34.7 57.8 0 18.7 7.6 29.2 20.4 29.2zm57.3 0c10.2 0 17.5-6.4 17.5-17.8 0-10.5-8.5-16.3-17.5-16.3-0.9 0-1.8 0-2.7 0.3 0-18.4 8.5-29.8 24.6-40.6l-7.6-12.6c-22.2 13.2-34.5 31.9-34.5 57.8 0 18.7 7.6 29.2 20.2 29.2zm128.9-0.5c22.5-13.2 34.8-31.9 34.8-57.9 0-18.6-7.6-29.5-20.8-29.5-9.9 0-16.9 6.8-16.9 17.9 0 10.8 8.2 16.6 16.9 16.6 1.2 0 2.4 0 3.3-0.3 0 18.4-8.5 29.5-24.9 40.6zm57.6 0c22.2-13.1 34.4-31.8 34.4-57.8 0-18.7-7.6-29.5-20.4-29.5-9.9 0-17.2 6.7-17.2 17.8 0 10.8 8.1 16.6 17.2 16.6 0.9 0 2 0 2.9-0.2 0 18.4-8.2 29.4-24.8 40.5z"/>
	</g>
</svg>